<?xml version="1.0" encoding="UTF-8" standalone="no"?>
<!DOCTYPE svg PUBLIC "-//W3C//DTD SVG 1.1//EN" "http://www.w3.org/Graphics/SVG/1.1/DTD/svg11.dtd">
<svg width="100%" height="100%" viewBox="0 0 957 710" version="1.1" xmlns="http://www.w3.org/2000/svg" xmlns:xlink="http://www.w3.org/1999/xlink" xml:space="preserve" xmlns:serif="http://www.serif.com/" style="fill-rule:evenodd;clip-rule:evenodd;stroke-linejoin:round;stroke-miterlimit:2;">
    <g transform="matrix(1,0,0,1,-177,-88)">
        <g id="large" transform="matrix(1,0,0,1,-72.8393,-708.661)">
            <g id="Bounding-Box" serif:id="Bounding Box" transform="matrix(0.964286,0,0,2.5,79.1667,664.37)">
                <rect x="177.165" y="53.15" width="992.126" height="283.465" style="fill:none;"/>
            </g>
            <g id="Logo" transform="matrix(1,0,0,1,96.6327,-770.644)">
                <path d="M292.165,1927.1C273.567,1929.93 254.853,1930.59 225.296,1930.34C220.213,1930.29 214.96,1930.26 209.794,1930.25C190.033,1930.18 187.834,1926.45 187.834,1913.94C187.834,1904.17 192.943,1896.03 211.179,1897.71C215.476,1898.11 220.068,1898.51 224.945,1898.91C278.067,1903.32 281.867,1902.86 290.066,1890.99C290.811,1889.91 291.553,1888.94 292.303,1888.05C292.211,1889.69 292.165,1891.35 292.165,1893.04L292.165,1927.1ZM300.146,1858.6C285.23,1855.93 271.95,1851.7 257.232,1845.14C249.902,1841.87 236.01,1837.68 226.362,1835.84C225.623,1835.7 224.895,1835.55 224.18,1835.39C198.163,1829.67 205.444,1790.68 237.597,1801.48C257.231,1808.07 283.055,1820.11 306.761,1834.48C310.042,1836.47 313.197,1837.96 316.119,1838.94C310.281,1843.73 305.435,1849.42 301.572,1856.03C301.077,1856.87 300.602,1857.73 300.146,1858.6ZM332.797,1828.91C329.877,1823.19 319.413,1815.98 300.385,1806.48C274.299,1793.45 274.157,1793.29 276.03,1778.34C277.464,1766.89 276.914,1763.04 264.736,1755.16C251.752,1746.77 268.703,1726.75 279.54,1736.15C283.426,1739.52 287.563,1743.18 291.971,1747.15C298.92,1753.4 305.496,1765.97 306.6,1775.12C307.499,1782.54 312.189,1787.77 324.84,1795.46C335.845,1802.15 345.064,1811.4 352.641,1823.36C345.538,1824.42 338.925,1826.28 332.797,1828.91ZM388.275,1824.46C384.011,1813.87 376.507,1806.63 358.748,1791.65C344.918,1779.98 339.099,1769.86 334.531,1762.85C327.934,1752.73 326.118,1752.79 321.529,1745.05C314.484,1733.18 321.347,1719.28 338.718,1728.93C344.544,1732.17 348.149,1736.28 350.398,1738.17C359.263,1745.63 359.664,1753.94 365.757,1760.03C384.171,1778.43 397.303,1795.13 409.27,1815.36C414.267,1823.81 419.089,1831.14 423.653,1837.28C427.383,1841.96 433.43,1848.75 441.452,1855.65C441.675,1855.82 441.899,1856 442.124,1856.18C445.291,1858.88 448.755,1861.58 452.498,1864.16C450.542,1868.66 449.043,1873.4 448.009,1878.38C446.5,1877.44 444.627,1876.56 442.361,1875.76C441.879,1875.59 441.4,1875.42 440.923,1875.25C439.401,1867.86 436.734,1861.06 432.953,1854.84C426.626,1844.43 417.673,1836.34 406.039,1830.62C400.521,1827.91 394.601,1825.85 388.275,1824.46ZM464.172,1845.89C457.888,1844.99 449.051,1836.54 438.955,1821.69C438.525,1821.06 423.165,1798.7 418.703,1790.88C412.758,1780.48 398.468,1758.58 386.95,1742.22C358.865,1702.33 355.815,1697.01 352.608,1682.37C352.013,1679.66 351.555,1677.08 351.232,1674.64C348.846,1656.67 374.313,1645.43 380.988,1658.7C382.387,1661.48 383.899,1664.9 385.658,1669.13C390.134,1679.88 397.649,1692.79 405.298,1702.87C422.248,1725.22 428.881,1737.47 441.309,1769.41C448.207,1787.14 451.683,1794.78 457.249,1802.43C457.661,1802.98 463.897,1810.89 464.145,1811.57C472.626,1821.3 474.44,1831.11 472.947,1837.76C469.756,1840.22 466.832,1842.92 464.172,1845.89ZM486.88,1829.43C482.896,1811.76 476.53,1787.38 475.563,1781.96C473.763,1771.85 468.568,1751.2 464.024,1736.07C455.845,1708.86 455.776,1708.35 457.513,1688.42C458.766,1674.03 457.736,1659.36 453.257,1635.94C449.721,1617.46 481.647,1605.35 481.672,1632.32C481.682,1643.84 482.094,1655.92 482.825,1663.81C483.948,1675.87 484.598,1688.85 484.274,1692.63C483.352,1703.34 485.979,1713.58 491.572,1721.1C499.055,1731.16 501.395,1740.43 500.121,1754.95C499.501,1762.04 499.374,1774.98 499.84,1783.72C499.989,1786.5 501.54,1804.75 504.569,1823.9C498.275,1825.09 492.38,1826.94 486.88,1829.43ZM524.613,1822.33C522.143,1806.29 519.89,1789.8 519.908,1785.88C519.997,1765.83 522.992,1762.29 537.345,1765.24C548.856,1767.61 557.347,1763.27 558.464,1754.47C561.464,1730.75 563.144,1722.5 566.373,1715.61C568.45,1711.19 570.61,1702.28 571.176,1695.81C571.742,1689.34 571.949,1682.74 574.237,1674.74C575.097,1671.73 575.989,1668.95 576.978,1666.4C588.967,1635.58 616.204,1648.62 608.683,1677.49C597.177,1721.67 579.189,1770.3 561.036,1789.52C555.611,1795.27 542.379,1805.3 542.759,1814.89C542.903,1818.54 543.076,1821.77 543.33,1824.56C537.455,1823.21 531.217,1822.46 524.613,1822.33ZM559.234,1830.08C561.71,1827.69 564.573,1824.64 567.884,1820.91C569.773,1818.78 581.97,1801.63 584.7,1796.38C603.051,1761.03 632.389,1709.03 640.948,1696.68L645.55,1690.04L641.152,1678.52C639.035,1672.97 637.789,1667.81 637.456,1662.73C636.719,1651.51 654.047,1667.95 661.942,1676.55C663.615,1678.38 665.534,1679.59 667.649,1680.23C682.358,1684.7 706.182,1688.71 690.422,1696.91C671.747,1706.63 658.723,1719.89 640.395,1747.76C631.264,1761.65 619.229,1778.64 613.648,1785.51C601.423,1800.59 599.919,1803.58 602.077,1808.56C607.161,1820.27 617.548,1813.2 652.221,1770.71C663.344,1757.08 668.428,1750.8 676.297,1745.2C692.884,1733.39 716.996,1754.99 696.148,1765.83C684.406,1771.93 676.887,1778.75 665.339,1793.86C652.012,1811.31 643.569,1818.74 632.1,1824.44L625.299,1824.44L623.108,1824.64L620.892,1825.3L618.85,1826.39L617.139,1827.81L615.724,1829.52L614.626,1831.56L614.604,1831.64C612.835,1832.29 610.983,1832.97 609.036,1833.68C605.38,1835.03 599.15,1837.64 598.822,1837.81C593.352,1840.51 587.693,1843.95 582.182,1847.7C576.627,1841.08 569.857,1835.64 561.87,1831.41C561.002,1830.95 560.123,1830.5 559.234,1830.08ZM669.238,1824.44C673.747,1820.7 677.199,1817.27 679.126,1814.37C686.132,1803.82 692.299,1797.25 701.156,1790.89C707.923,1786.04 719.671,1776.87 727.269,1770.51C731.653,1766.85 738.722,1761.53 746.135,1756.25C759.071,1747.04 782.666,1774.84 761.148,1779.7C739.307,1784.64 735.428,1793.75 746.592,1812.25C762.841,1839.15 764.841,1839.99 780.44,1826.31C781.063,1825.77 781.657,1825.24 782.221,1824.73C797.124,1811.35 810.008,1832.19 788.783,1844.73C781.182,1849.23 781.012,1856.5 792.909,1860.7C800.038,1863.21 804.961,1866.39 807.356,1869.71C806.072,1873.69 804.718,1877.89 803.312,1882.25C801.699,1883.25 799.734,1884.18 797.403,1885.03C788.708,1888.22 776.639,1890.77 762.014,1892.03C762.115,1890.43 762.165,1888.82 762.165,1887.17C762.165,1874.97 759.459,1864.16 754.172,1854.7C749.741,1846.78 743.844,1840.32 736.48,1835.33C735.782,1834.35 735.013,1833.31 734.172,1832.21C729.621,1826.28 724.14,1818.47 721.993,1814.87C716.96,1806.4 710.562,1805.71 702.107,1812.71C697.354,1816.65 695.95,1817.93 696.705,1824.44L669.238,1824.44ZM824.236,1995.5C825.124,1998.11 825.629,2000.35 825.629,2001.86C825.629,2005.66 819.937,2008.29 812.289,2011.14C813.842,2006.1 815.794,1999.77 817.111,1995.5L824.236,1995.5ZM763.064,2024.01C762.586,2023.88 762.102,2023.75 761.613,2023.61L762.228,2022.78L762.971,2023.93L763.064,2024.01ZM705.555,1998.61C693.635,1991.74 693.645,1990.19 694.108,1984.89C694.355,1982.07 695.002,1979.99 696.392,1978.62L705.555,1998.61ZM687.762,1959.79C681.03,1959.6 673.099,1958.12 661.365,1955.1L661.365,1947.5L682.129,1947.5L687.762,1959.79ZM661.365,1991.35C697.844,2009.35 717.274,2023.98 716.488,2032.95C715.368,2045.76 703.222,2046.19 686.679,2034.01C678.572,2028.04 672.917,2025.52 663.336,2023.57C661.902,2023.27 660.584,2023 659.362,2022.74L659.406,2022.68L660.504,2020.64L661.162,2018.43L661.365,2016.24L661.365,1991.35ZM613.765,1995.7C613.577,1995.58 613.393,1995.47 613.212,1995.36C612.846,1995.13 605.177,1989.76 595.059,1981.33C597.475,1973.69 598.699,1965.42 598.699,1956.5L598.699,1955.45C603.812,1959.37 609.104,1963.17 613.765,1966.32L613.765,1995.7ZM587.503,1997.64C594.599,2004.87 600.155,2010.63 600.945,2011.27C627.189,2032.27 632.597,2043.99 620.849,2054.36C611.012,2063.04 601.714,2056.45 587.633,2030.82C584.583,2025.26 581.779,2020.91 579.157,2017.71C578.978,2017.49 577.533,2015.33 575.392,2011.99C580.061,2007.84 584.098,2003.06 587.503,1997.64ZM559.98,2022.3C560.821,2023.59 561.559,2025.19 562.152,2027.12C564.132,2033.58 568.306,2041.78 574.619,2051.42C579.178,2058.38 586.055,2069.71 589.907,2076.6C601.319,2097.01 610.482,2099.95 618.874,2085.88C628.564,2069.64 643.261,2074.98 643.87,2094.96C644.052,2100.91 644.68,2109.6 645.263,2114.26C646.836,2126.72 642.533,2131.47 630.622,2130.43C612.33,2128.83 609.442,2137.53 621.936,2156.59C630.293,2169.34 633.887,2182.52 633.17,2192.75C631.333,2218.94 616.379,2223.43 603.01,2205.3C599.916,2201.1 597.703,2194.3 595.487,2183.62C585.084,2133.48 568.434,2086.34 554.831,2068.49C545.926,2056.81 542.319,2048.92 541.417,2034.19C541.293,2032.16 541.47,2030.25 541.884,2028.5C548.345,2027.13 554.376,2025.06 559.98,2022.3ZM510.923,2029.8C512.592,2032.15 513.488,2034.78 513.162,2037.34C511.086,2053.67 508.823,2067.3 507.078,2071.35C502.325,2082.37 502.046,2084.6 501.031,2119.81C499.716,2165.28 496.854,2172.3 480.207,2170.85C464.988,2169.51 462.965,2160.87 471.732,2134.61C479.774,2110.51 479.726,2111.02 474.672,2104.08C466.035,2092.21 456.025,2104.04 449.581,2133.73C447.448,2143.54 442.63,2162.68 438.874,2176.26C435.439,2188.66 432.107,2204.2 431.033,2212.59C426.368,2249.03 343.149,2219.62 375.119,2191.87C379.256,2188.28 383.971,2184.51 389.494,2180.29C408.081,2166.12 418.521,2151.5 426.494,2128.49C433.242,2109.02 440.253,2098.12 453.445,2086.57C468.954,2073 477.509,2058.08 482.91,2033.06C483.865,2028.63 485.734,2025.66 488.095,2023.84C495.077,2026.86 502.684,2028.85 510.923,2029.8ZM469.635,2012.23C466.028,2019.7 463.173,2025.14 462.986,2025.49C459.49,2031.97 453.925,2040.52 445.688,2052.49C441.055,2059.22 427.846,2080.51 416.335,2099.79C385.081,2152.15 391.624,2144.11 379.112,2150.92C361.465,2160.52 353.392,2155.79 359.823,2138.61C362.133,2132.44 367.663,2124.41 376.384,2114.7C380.517,2110.09 378.617,2112.39 387.565,2099.38C396.509,2086.38 396.332,2086.61 399.65,2082.62C408.317,2072.19 409.851,2067.57 406.215,2062.83C399.678,2054.32 391.208,2057.49 380.099,2072.63C371.029,2084.99 338.789,2124.16 328.025,2135.9C325.165,2139.02 319.78,2145.66 314.666,2152.32C295.376,2180.71 257.216,2162.12 290.219,2129.18C296.158,2123.25 303.366,2116.36 312.129,2108.12C330.746,2090.6 360.708,2060.86 372.24,2048.46C381.412,2038.59 388.95,2036.75 401.842,2041.2C414.754,2045.66 419.805,2042.81 435.488,2022.15C436.507,2020.8 442.811,2013.12 449.606,2004.17C449.757,2003.95 449.917,2003.72 450.088,2003.5C452.076,2000.87 454.096,1998.14 456.03,1995.45C459.711,2001.88 464.245,2007.48 469.635,2012.23ZM448.959,1978.1C446.491,1981.03 440.437,1987.75 434.814,1993.92C439.667,1984.66 442.234,1974.17 442.421,1962.42C443.994,1961.67 445.332,1961.04 446.383,1960.55C446.644,1966.72 447.506,1972.57 448.959,1978.1ZM357.513,2029.43C359.954,2037.56 358.264,2043.8 352.305,2048.73C344.074,2055.55 333.284,2050.72 330.908,2039.16C327.453,2022.36 321.261,2023.06 282.685,2044.63C264.243,2054.95 252.176,2061.43 243.916,2064.56C200.763,2080.87 203.939,2002 226.167,2023.88C227.282,2024.97 228.629,2026.18 230.083,2027.38C238.746,2034.49 241.118,2034.15 258.758,2023.22C271.867,2015.1 289.41,2007.9 306.706,2003.44C312.435,2010.69 319.661,2016.58 328.402,2021.1C337.058,2025.58 346.757,2028.38 357.513,2029.43ZM294.857,1979.9C294.19,1979.99 293.553,1980.06 292.952,1980.12C286.691,1980.69 279.57,1981.35 277.128,1981.58C274.682,1981.81 268.842,1984.86 264.146,1988.36C254.563,1995.51 243.483,1996 231.934,1989.78C226.938,1987.09 224.073,1968.26 232.116,1963.84C240.11,1959.44 242.41,1959.13 258.205,1960.33C272.155,1961.39 277.859,1960.9 287.49,1957.82C288.94,1957.35 290.525,1956.9 292.165,1956.46L292.165,1958.9C292.165,1966.39 293.07,1973.39 294.857,1979.9ZM339.799,1890.6C360.388,1893.63 371.762,1887.29 362.995,1874.06C361.325,1871.54 358.792,1869.48 355.03,1867.77C358.67,1866.33 362.812,1865.64 367.432,1865.64C375.804,1865.64 382.571,1867.89 387.58,1872.84C392.532,1877.72 394.832,1884.23 394.832,1892.24L395.054,1894.62L395.904,1897.26L398.334,1900.58L401.686,1902.66L404.146,1903.33L406.365,1903.5C406.516,1903.5 406.667,1903.5 406.817,1903.49L431.351,1902.16L430.899,1902.17L433.089,1901.97L435.305,1901.31L437.347,1900.21L439.058,1898.8L440.473,1897.08L441.571,1895.04L442.228,1892.83L442.243,1892.67C443.76,1892.5 445.145,1892.2 446.379,1891.8C446.325,1893.09 446.299,1894.39 446.299,1895.7L446.299,1905.88C442.873,1908.59 440.92,1910.3 419.651,1909.56C409.487,1909.21 400.504,1906.51 393.114,1906.34C392.59,1906.48 392.067,1906.53 391.551,1906.48C381.687,1905.7 369.557,1908.2 339.765,1916.2L339.765,1892.24C339.765,1891.68 339.776,1891.14 339.799,1890.6ZM515.836,1866.19C517.76,1869.5 519.862,1871.44 522.146,1871.44C527.691,1871.44 530.424,1870 531.291,1866.67C535.996,1867.87 540.021,1870.12 543.33,1873.52C544.369,1874.59 545.299,1875.72 546.123,1876.93C545.64,1877.39 545.241,1877.77 544.931,1878.07C529.148,1893.19 511.164,1890.48 500.106,1875.28C500.596,1874.67 501.116,1874.08 501.667,1873.52C505.49,1869.6 510.229,1867.19 515.836,1866.19ZM493.899,1916.1C509.034,1906.73 530.172,1904.26 546.691,1912.04C548.295,1912.8 549.744,1913.47 551.099,1914.06L551.099,1933.84C544.592,1925.59 537.855,1921.72 532.24,1926.22C529.904,1928.09 528.761,1930.12 528.757,1932.96C528.761,1935.27 529.511,1938.12 530.98,1941.86C533.05,1947.13 535.595,1952.87 535.063,1968.09C534.763,1976.65 532.858,1982.07 530.468,1986.26C527.953,1986.83 525.25,1987.1 522.365,1987.1C518.296,1987.1 514.589,1986.53 511.256,1985.35C514.141,1962.94 516.522,1933.61 515.069,1929.74C515.041,1929.69 515.015,1929.65 514.991,1929.6C513.909,1927.56 509.741,1926.08 506.76,1926.69C502.266,1927.6 497.746,1931.8 493.899,1939.34L493.899,1916.1ZM446.299,1937.97C442.913,1939.45 438.919,1941 434.277,1942.66C430.309,1944.08 424.414,1946.71 418.526,1949.49L406.727,1948.98C406.607,1948.97 406.486,1948.97 406.365,1948.97L404.146,1949.14L401.686,1949.81L398.334,1951.89L395.904,1955.21L395.054,1957.85L394.832,1960.24C394.832,1960.62 394.827,1961.01 394.816,1961.38C389.24,1964.14 380.24,1968.52 376.346,1970.08C365.629,1974.37 361.622,1973.14 345.343,1972.01C344.14,1971.92 343.002,1971.85 341.923,1971.79C340.468,1968.38 339.765,1964.52 339.765,1960.24L339.765,1945.58C350.204,1942.65 365.362,1939.54 375.908,1938.25C378.906,1937.88 381.677,1937.54 384.243,1937.22C384.373,1937.19 397.205,1934.77 409.978,1931.87C410.21,1931.79 410.447,1931.73 410.691,1931.67C417.736,1930.06 424.69,1928.32 429.409,1926.77C434.07,1925.24 440.977,1922.28 444.79,1920.63C445.308,1920.41 445.811,1920.2 446.299,1920.01L446.299,1937.97ZM594.369,1869.1C600.132,1866.47 606.775,1863.18 613.765,1859.49L613.765,1894.09C608.324,1895.72 603.217,1896.94 598.699,1897.84L598.699,1895.7C598.699,1886.1 597.242,1877.23 594.369,1869.1ZM664.606,1867.77C663.509,1868.47 662.425,1869.19 661.365,1869.93L661.365,1867.77L664.606,1867.77ZM749.714,1925.23C757.717,1925.6 764.498,1926.61 771.962,1928.33C777.457,1929.6 783.181,1929.38 788.573,1927.96C785.944,1936.11 783.332,1944.21 780.824,1951.98C778.64,1952.78 776.37,1953.78 774.232,1954.93C764.417,1960.19 762.371,1960.63 735.75,1957.07C732.824,1951.03 730.207,1945.63 728.265,1941.62C736.943,1937.8 744.08,1932.32 749.714,1925.23ZM712.15,1897.82C707.836,1898.67 703.74,1899.61 699.734,1900.67C675.774,1906.97 663.464,1904.21 664.467,1892.74C664.99,1886.76 669.972,1883.57 684.993,1879.58C690.079,1878.24 698.18,1874.95 706.635,1871.03C707.542,1871.64 708.394,1872.33 709.19,1873.11C712.881,1876.74 714.565,1881.56 714.565,1887.44C714.565,1891.41 713.797,1894.89 712.15,1897.82ZM749.586,1985.63C752.588,1986.14 755.215,1986.52 757.184,1986.72C761.253,1987.14 765.645,1987.81 769.05,1988.49C765.604,1999.18 763.019,2007.2 761.827,2010.89C760.256,2007.65 755.342,1997.51 749.586,1985.63ZM613.765,1938.99C608.718,1937.37 603.599,1935.87 598.699,1934.63L598.699,1918.93C598.873,1918.93 599.048,1918.93 599.225,1918.93C600.328,1918.93 601.345,1918.94 602.283,1918.97C605.957,1918.97 609.899,1918.98 613.765,1918.99L613.765,1938.99ZM720.416,1944.54L720.404,1944.51C720.437,1944.5 720.471,1944.49 720.505,1944.48C720.724,1944.41 720.943,1944.35 721.16,1944.28C720.919,1944.38 720.671,1944.46 720.416,1944.54ZM540.754,1633.55C540.483,1635.13 540.36,1636.78 540.059,1638.45C538.19,1648.82 538.4,1652 541.442,1659.2C545.873,1669.72 544.178,1676.81 535.204,1685.28C527.331,1692.72 527.74,1696.9 537.332,1707.09C553.104,1723.84 540.942,1744.52 521.978,1733.2C512.824,1727.74 510.135,1717.89 509.083,1685.95C508.642,1672.5 507.728,1652.84 507.055,1642.26C506.792,1638.14 506.584,1634.55 506.444,1631.41C505.284,1605.47 518.884,1602.92 524.919,1603.32C530.314,1603.67 544.335,1612.68 540.754,1633.55ZM502.341,2205.73C505.396,2186.35 508.94,2184.88 516.197,2175.04C527.541,2159.66 530.38,2139.8 525.613,2109.14C522.442,2088.75 522.731,2083.07 527.207,2077.8C531.259,2073.04 536.256,2073.17 541.512,2078.18C545.452,2081.94 547.282,2089.91 555.682,2139.92C557.813,2152.62 561.985,2170.63 564.958,2179.95C568.626,2191.48 570.406,2208.66 570.509,2218.76C570.519,2219.76 570.543,2220.72 570.579,2221.65C571.108,2235.2 565.149,2241.1 558.929,2241.12C552.886,2241.13 546.596,2235.6 545.768,2226.17C543.095,2195.72 538.723,2184.73 528.521,2193.18C524.54,2196.48 524.619,2200.09 524.404,2205.25C523.704,2222.03 517.983,2224.92 512.082,2224.92C506.182,2224.92 499.618,2223.01 502.341,2205.73ZM723.112,2125.69C723.112,2125.69 718.405,2120.53 715.747,2118.27C707.684,2111.41 689,2094.74 674.731,2084.55C640.742,2060.27 634.382,2051.81 642.723,2042C647.292,2036.62 653.644,2037.58 665.188,2045.4C670.494,2049 680.489,2054.54 687.397,2057.72C697.675,2062.45 702.65,2066.5 714.779,2080C725.272,2091.68 733.346,2099.79 740.214,2105.18C752.081,2114.51 733.817,2136.39 723.112,2125.69Z" style="fill:rgb(255,138,128);"/>
            </g>
            <g transform="matrix(1,0,0,1,107.301,535.38)">
                <path d="M356.763,715.545C343.43,715.545 331.697,712.923 321.563,707.679C311.43,702.434 303.608,695.101 298.097,685.679C292.586,676.256 289.83,665.323 289.83,652.879L289.83,587.012C289.83,574.567 292.586,563.634 298.097,554.212C303.608,544.79 311.43,537.501 321.563,532.345C331.697,527.19 343.43,524.612 356.763,524.612C369.919,524.612 381.563,527.101 391.697,532.079C401.83,537.056 409.652,544.079 415.163,553.145C420.674,562.212 423.43,572.701 423.43,584.612C423.43,585.501 423.119,586.256 422.497,586.879C421.874,587.501 421.119,587.812 420.23,587.812L395.697,589.145C393.563,589.145 392.497,588.167 392.497,586.212C392.497,575.723 389.252,567.279 382.763,560.879C376.274,554.479 367.608,551.279 356.763,551.279C345.919,551.279 337.208,554.479 330.63,560.879C324.052,567.279 320.763,575.723 320.763,586.212L320.763,654.212C320.763,664.523 324.052,672.879 330.63,679.279C337.208,685.679 345.919,688.879 356.763,688.879C367.608,688.879 376.274,685.723 382.763,679.412C389.252,673.101 392.497,664.701 392.497,654.212C392.497,652.256 393.563,651.279 395.697,651.279L420.23,652.345C421.119,652.345 421.874,652.612 422.497,653.145C423.119,653.679 423.43,654.301 423.43,655.012C423.43,667.101 420.674,677.723 415.163,686.879C409.652,696.034 401.83,703.101 391.697,708.079C381.563,713.056 369.919,715.545 356.763,715.545Z" style="fill-rule:nonzero;"/>
                <path d="M511.697,716.079C498.186,716.079 486.319,713.367 476.097,707.945C465.874,702.523 457.963,694.834 452.363,684.879C446.763,674.923 443.963,663.456 443.963,650.479L443.963,589.679C443.963,576.879 446.763,565.545 452.363,555.679C457.963,545.812 465.874,538.167 476.097,532.745C486.319,527.323 498.186,524.612 511.697,524.612C525.208,524.612 537.074,527.323 547.297,532.745C557.519,538.167 565.474,545.812 571.163,555.679C576.852,565.545 579.697,576.879 579.697,589.679L579.697,650.479C579.697,663.456 576.852,674.923 571.163,684.879C565.474,694.834 557.519,702.523 547.297,707.945C537.074,713.367 525.208,716.079 511.697,716.079ZM511.697,689.412C522.897,689.412 531.874,685.945 538.63,679.012C545.386,672.079 548.763,662.923 548.763,651.545L548.763,589.412C548.763,577.856 545.386,568.612 538.63,561.679C531.874,554.745 522.897,551.279 511.697,551.279C500.674,551.279 491.786,554.745 485.03,561.679C478.274,568.612 474.897,577.856 474.897,589.412L474.897,651.545C474.897,662.923 478.274,672.079 485.03,679.012C491.786,685.945 500.674,689.412 511.697,689.412Z" style="fill-rule:nonzero;"/>
                <path d="M716.23,713.412C714.452,713.412 713.208,712.612 712.497,711.012L677.297,634.212C676.941,633.501 676.408,633.145 675.697,633.145L643.697,633.145C642.808,633.145 642.363,633.59 642.363,634.479L642.363,710.212C642.363,711.101 642.052,711.856 641.43,712.479C640.808,713.101 640.052,713.412 639.163,713.412L614.63,713.412C613.741,713.412 612.986,713.101 612.363,712.479C611.741,711.856 611.43,711.101 611.43,710.212L611.43,529.945C611.43,529.056 611.741,528.301 612.363,527.679C612.986,527.056 613.741,526.745 614.63,526.745L687.963,526.745C698.808,526.745 708.408,529.012 716.763,533.545C725.119,538.079 731.608,544.479 736.23,552.745C740.852,561.012 743.163,570.479 743.163,581.145C743.163,593.412 740.008,603.856 733.697,612.479C727.386,621.101 718.63,627.101 707.43,630.479C707.074,630.479 706.808,630.656 706.63,631.012C706.452,631.367 706.452,631.723 706.63,632.079L744.23,709.679C744.586,710.39 744.763,710.923 744.763,711.279C744.763,712.701 743.786,713.412 741.83,713.412L716.23,713.412ZM643.697,553.412C642.808,553.412 642.363,553.856 642.363,554.745L642.363,607.812C642.363,608.701 642.808,609.145 643.697,609.145L683.697,609.145C692.23,609.145 699.119,606.612 704.363,601.545C709.608,596.479 712.23,589.767 712.23,581.412C712.23,573.056 709.608,566.301 704.363,561.145C699.119,555.99 692.23,553.412 683.697,553.412L643.697,553.412Z" style="fill-rule:nonzero;"/>
                <path d="M885.563,713.412C883.786,713.412 882.63,712.523 882.097,710.745L873.297,682.212C872.941,681.501 872.497,681.145 871.963,681.145L801.297,681.145C800.763,681.145 800.319,681.501 799.963,682.212L791.163,710.745C790.63,712.523 789.474,713.412 787.697,713.412L761.03,713.412C759.963,713.412 759.163,713.101 758.63,712.479C758.097,711.856 758.008,710.923 758.363,709.679L816.497,529.412C817.03,527.634 818.186,526.745 819.963,526.745L853.297,526.745C855.074,526.745 856.23,527.634 856.763,529.412L914.897,709.679C915.074,710.034 915.163,710.479 915.163,711.012C915.163,712.612 914.186,713.412 912.23,713.412L885.563,713.412ZM808.23,655.279C808.052,656.345 808.408,656.879 809.297,656.879L863.697,656.879C864.763,656.879 865.119,656.345 864.763,655.279L837.297,565.412C837.119,564.701 836.852,564.345 836.497,564.345C836.141,564.345 835.874,564.701 835.697,565.412L808.23,655.279Z" style="fill-rule:nonzero;"/>
                <path d="M939.163,529.945C939.163,529.056 939.474,528.301 940.097,527.679C940.719,527.056 941.474,526.745 942.363,526.745L966.897,526.745C967.786,526.745 968.541,527.056 969.163,527.679C969.786,528.301 970.097,529.056 970.097,529.945L970.097,685.412C970.097,686.301 970.541,686.745 971.43,686.745L1060.76,686.745C1061.65,686.745 1062.41,687.056 1063.03,687.679C1063.65,688.301 1063.96,689.056 1063.96,689.945L1063.96,710.212C1063.96,711.101 1063.65,711.856 1063.03,712.479C1062.41,713.101 1061.65,713.412 1060.76,713.412L942.363,713.412C941.474,713.412 940.719,713.101 940.097,712.479C939.474,711.856 939.163,711.101 939.163,710.212L939.163,529.945Z" style="fill-rule:nonzero;"/>
            </g>
        </g>
    </g>
</svg>
